<?xml version="1.0" standalone="no"?>
<!DOCTYPE svg PUBLIC "-//W3C//DTD SVG 20010904//EN"
 "http://www.w3.org/TR/2001/REC-SVG-20010904/DTD/svg10.dtd">
<svg version="1.0" xmlns="http://www.w3.org/2000/svg"
 width="500.000000pt" height="500.000000pt" viewBox="0 0 500.000000 500.000000"
 preserveAspectRatio="xMidYMid meet">

<g transform="translate(0.000000,500.000000) scale(0.100000,-0.100000)"
fill="#000000" stroke="none">
<path d="M1310 3384 c-13 -7 -28 -22 -32 -34 -4 -12 -12 -19 -17 -15 -5 3 -12
1 -16 -5 -3 -5 -17 -7 -31 -4 -18 5 -24 2 -24 -10 0 -19 -14 -21 -29 -3 -14
18 -46 15 -70 -7 -13 -12 -21 -14 -26 -6 -4 6 -17 15 -28 19 -16 6 -26 2 -40
-15 -17 -23 -17 -24 13 -66 18 -24 38 -42 47 -40 11 3 13 -2 8 -20 -9 -30 -9
-30 0 -51 4 -10 25 -26 46 -36 31 -15 40 -16 49 -6 20 24 48 24 72 -2 19 -20
20 -25 8 -33 -11 -7 -11 -10 -2 -10 24 0 52 -35 46 -57 -7 -25 -29 -37 -64
-34 -18 1 -28 -5 -37 -24 -7 -17 -8 -25 -1 -25 6 0 26 -12 45 -26 19 -14 46
-30 61 -34 15 -4 26 -13 24 -19 -4 -18 17 -51 33 -51 7 0 17 -9 20 -21 9 -28
64 -89 81 -89 8 0 14 -7 14 -15 0 -8 5 -15 10 -15 6 0 10 -8 10 -19 0 -13 16
-25 53 -41 58 -25 60 -26 65 -11 2 6 -3 11 -12 11 -9 0 -16 5 -16 10 0 6 -22
32 -50 58 -32 30 -52 59 -56 80 -4 18 -18 42 -33 53 -38 30 -71 88 -61 108 4
9 15 36 24 61 9 27 25 49 38 55 27 12 71 92 54 98 -6 2 6 7 28 11 24 5 53 21
79 47 l41 39 -36 0 c-20 0 -46 8 -61 20 -14 11 -30 20 -35 20 -15 0 -23 59
-11 81 11 22 11 22 -69 38 -30 6 -61 20 -70 30 -15 16 -20 17 -42 5z"/>
<path d="M1515 3090 c-3 -5 -1 -10 4 -10 6 0 11 5 11 10 0 6 -2 10 -4 10 -3 0
-8 -4 -11 -10z"/>
<path d="M2420 2843 c-72 -4 -90 -14 -83 -44 10 -37 42 -49 134 -49 l87 0 -34
-157 c-41 -190 -85 -435 -86 -476 -1 -35 23 -57 64 -57 33 0 43 17 52 85 7 47
101 544 113 593 5 21 10 22 108 22 57 0 115 4 129 10 32 12 34 43 4 64 -19 13
-55 16 -223 14 -110 -1 -229 -3 -265 -5z m458 -21 c54 -16 16 -27 -100 -32
l-123 -5 -12 -40 c-11 -34 -101 -505 -118 -617 -3 -20 -12 -39 -20 -42 -24 -9
-45 4 -45 28 0 37 37 236 79 430 23 102 41 198 41 212 l0 26 -93 -7 c-81 -6
-96 -5 -111 10 -9 10 -14 21 -9 26 14 14 466 23 511 11z"/>
<path d="M2044 2668 c-21 -41 -31 -48 -70 -48 -45 0 -48 -10 -13 -46 28 -29
31 -37 27 -78 l-5 -44 42 20 41 20 43 -22 43 -21 -7 33 c-3 18 -8 40 -11 49
-2 8 9 28 26 44 33 32 27 45 -22 45 -22 0 -32 8 -48 40 -11 22 -22 40 -25 40
-2 0 -12 -15 -21 -32z m42 -23 c12 -29 20 -35 44 -35 39 0 44 -13 16 -39 -20
-19 -23 -29 -18 -63 l5 -40 -33 17 c-31 16 -35 16 -68 1 l-35 -17 6 40 c4 33
1 43 -19 62 -28 26 -23 39 15 39 21 0 31 8 44 35 9 19 19 35 22 35 3 0 13 -16
21 -35z"/>
<path d="M3885 2602 c-22 -10 -46 -26 -54 -35 -12 -15 -15 -15 -38 3 -29 23
-56 26 -71 7 -6 -7 -22 -75 -37 -152 -21 -114 -32 -149 -57 -186 -31 -46 -65
-75 -75 -65 -3 3 8 81 25 173 27 150 29 170 16 191 -16 25 -65 30 -83 9 -6 -8
-18 -49 -27 -93 -30 -155 -84 -274 -127 -282 -26 -5 -22 49 15 226 29 140 30
154 16 169 -19 18 -64 21 -80 5 -18 -18 -78 -291 -78 -353 0 -42 5 -63 21 -83
46 -59 122 -72 182 -32 32 22 36 23 51 7 12 -12 35 -16 86 -16 38 -1 72 -4 76
-8 4 -4 22 -7 39 -7 37 0 65 26 65 61 0 13 9 64 20 112 32 147 101 251 185
280 48 17 66 41 45 62 -25 24 -71 27 -115 7z m95 -20 c0 -5 -22 -18 -49 -31
-28 -12 -64 -38 -81 -57 -37 -43 -86 -138 -95 -187 l-7 -36 -27 16 c-14 10
-28 18 -30 19 -6 5 41 248 49 257 12 13 52 -12 46 -28 -9 -24 18 -23 44 1 14
12 39 30 55 38 32 17 95 22 95 8z m-614 -36 c3 -8 -6 -72 -19 -143 -35 -177
-38 -208 -27 -237 13 -35 40 -33 77 7 46 46 79 127 105 252 21 98 25 110 46
113 13 2 25 -3 28 -12 3 -9 -6 -79 -21 -155 -42 -220 -27 -275 54 -194 l39 39
-5 -36 c-6 -41 -24 -57 -70 -66 -38 -7 -79 15 -92 49 l-8 21 -11 -21 c-16 -30
-91 -64 -122 -56 -100 25 -108 76 -49 326 26 109 33 127 50 127 11 0 22 -6 25
-14z m344 -294 c0 -9 -10 -30 -21 -47 l-21 -30 6 44 c4 24 9 48 12 53 8 13 24
-1 24 -20z m27 -29 c-3 -10 -8 -39 -12 -65 -4 -35 -11 -49 -27 -53 -39 -13
-40 10 -3 64 19 29 35 57 35 62 0 5 3 9 6 9 3 0 3 -8 1 -17z"/>
<path d="M2985 2585 c-78 -42 -134 -134 -156 -257 -29 -163 44 -254 198 -249
72 2 153 120 174 251 9 61 8 74 -5 95 -9 14 -21 25 -27 25 -6 0 -6 6 1 19 17
32 12 59 -18 92 -24 27 -37 33 -83 36 -37 3 -63 -1 -84 -12z m114 -16 c40 -14
68 -61 46 -79 -19 -16 -45 -6 -45 18 0 29 -25 45 -60 37 -76 -17 -142 -179
-125 -310 13 -111 76 -135 135 -53 32 44 83 188 78 222 -3 27 2 31 30 24 68
-18 -22 -282 -109 -318 -63 -26 -152 9 -185 73 -18 34 -15 151 5 219 19 61 72
130 120 155 50 26 65 28 110 12z m-29 -63 c0 -7 8 -21 19 -30 24 -22 19 -83
-16 -188 -28 -82 -71 -142 -97 -132 -39 15 -48 144 -16 247 15 48 30 73 56 96
34 31 54 33 54 7z"/>
<path d="M2186 2114 c-4 -9 -4 -19 -1 -22 3 -3 5 0 5 6 0 20 18 14 25 -8 10
-32 34 -50 66 -50 36 0 36 -6 3 -33 -23 -18 -25 -25 -19 -64 l6 -43 -32 19
c-32 19 -33 19 -70 1 l-37 -19 5 40 c5 34 2 44 -22 70 l-29 29 31 0 c18 0 39
7 47 16 23 22 20 25 -11 8 -16 -7 -40 -14 -55 -14 -36 0 -35 -9 2 -45 28 -27
30 -33 24 -74 -6 -41 -5 -44 12 -36 72 30 73 30 103 12 41 -24 44 -22 38 26
-5 37 -2 46 25 74 34 35 31 39 -27 45 -23 2 -34 11 -48 41 -20 40 -31 46 -41
21z"/>
<path d="M3070 1939 c-171 -15 -207 -37 -173 -107 34 -70 40 -71 458 -63 346
6 372 7 404 26 80 47 92 113 26 141 -27 11 -93 14 -327 13 -161 -1 -336 -5
-388 -10z m705 -31 c14 -6 25 -17 25 -25 0 -23 -45 -61 -86 -72 -46 -12 -731
-18 -757 -6 -21 9 -50 61 -42 75 15 24 193 37 547 39 199 1 295 -3 313 -11z"/>
</g>
</svg>
